
  <svg xmlns="http://www.w3.org/2000/svg" width="250" height="140">
    <text x="50%" y="18" font-size="14" text-anchor="middle" font-family="Arial">Dar Lokman</text>
    <text x="50%" y="35" font-size="12" text-anchor="middle" font-family="Arial">meuble</text>
    <g transform="translate(10,45)">
      <svg width="234px" height="86px" x="0px" y="0px" viewbox="0 0 234 86" xmlns="http://www.w3.org/2000/svg" version="1.1" style="transform: translate(0,0)"><rect x="0" y="0" width="234" height="86" style="fill:#ffffff;"></rect><g transform="translate(10, 10)" style="fill:#000000;"><text style="font: 14px monospace" text-anchor="start" x="0" y="66">5</text></g><g transform="translate(34, 10)" style="fill:#000000;"><rect x="0" y="0" width="2" height="59"></rect><rect x="4" y="0" width="2" height="59"></rect><text style="font: 14px monospace" text-anchor="middle" x="3" y="75"></text></g><g transform="translate(40, 10)" style="fill:#000000;"><rect x="2" y="0" width="6" height="50"></rect><rect x="10" y="0" width="4" height="50"></rect><rect x="22" y="0" width="2" height="50"></rect><rect x="26" y="0" width="2" height="50"></rect><rect x="32" y="0" width="2" height="50"></rect><rect x="36" y="0" width="6" height="50"></rect><rect x="44" y="0" width="4" height="50"></rect><rect x="54" y="0" width="2" height="50"></rect><rect x="60" y="0" width="4" height="50"></rect><rect x="68" y="0" width="2" height="50"></rect><rect x="76" y="0" width="2" height="50"></rect><rect x="82" y="0" width="2" height="50"></rect><text style="font: 14px monospace" text-anchor="middle" x="42" y="66">769518</text></g><g transform="translate(124, 10)" style="fill:#000000;"><rect x="2" y="0" width="2" height="59"></rect><rect x="6" y="0" width="2" height="59"></rect><text style="font: 14px monospace" text-anchor="middle" x="5" y="75"></text></g><g transform="translate(134, 10)" style="fill:#000000;"><rect x="0" y="0" width="6" height="50"></rect><rect x="8" y="0" width="2" height="50"></rect><rect x="14" y="0" width="2" height="50"></rect><rect x="20" y="0" width="6" height="50"></rect><rect x="28" y="0" width="2" height="50"></rect><rect x="34" y="0" width="2" height="50"></rect><rect x="42" y="0" width="6" height="50"></rect><rect x="50" y="0" width="2" height="50"></rect><rect x="56" y="0" width="2" height="50"></rect><rect x="60" y="0" width="6" height="50"></rect><rect x="70" y="0" width="2" height="50"></rect><rect x="76" y="0" width="2" height="50"></rect><text style="font: 14px monospace" text-anchor="middle" x="42" y="66">958948</text></g><g transform="translate(218, 10)" style="fill:#000000;"><rect x="0" y="0" width="2" height="59"></rect><rect x="4" y="0" width="2" height="59"></rect><text style="font: 14px monospace" text-anchor="middle" x="3" y="75"></text></g></svg>
    </g>
  </svg>
